<?xml version="1.0" encoding="UTF-8"?>
<svg width="138px" height="138px" viewBox="0 0 138 138" version="1.1" xmlns="http://www.w3.org/2000/svg" xmlns:xlink="http://www.w3.org/1999/xlink">
    <!-- Generator: Sketch 60 (88103) - https://sketch.com -->
    <title>square-color-transparent</title>
    <desc>Created with Sketch.</desc>
    <g id="square-color-transparent" stroke="none" stroke-width="1" fill="none" fill-rule="evenodd">
        <g id="SvgjsG1042" transform="translate(22.000000, 29.000000)" fill-rule="nonzero">
            <polygon id="color_2" fill="#FF7060" points="23.0004469 5.60296526 89.8876031 25.4973932 38.2897125 72.41381"></polygon>
            <path d="M65.713125,21.8006451 L60.0747,19.5998729 L67.3946063,0.916552436 L73.0330219,3.11732462 L65.713125,21.8006451 Z M82.7259375,12.4599114 L77.0875219,10.2591392 L69.767625,28.9424597 L75.4060406,31.1432319 L82.7259375,12.4599114 Z M14.4183375,14.7508386 C11.4906191,14.7508386 9.11723438,17.1201662 9.11723438,20.04288 C9.11723438,22.9655938 11.4906191,25.3349214 14.4183375,25.3349214 C17.3460559,25.3349214 19.7194406,22.9655938 19.7194406,20.04288 C19.7194406,18.6393434 19.1609331,17.2932919 18.1667835,16.3008416 C17.1726338,15.3083914 15.8242775,14.7508386 14.4183375,14.7508386 Z M13.779375,55.1621692 C17.6131388,53.5611057 20.0529679,49.7572237 19.9053937,45.6112329 L19.8551531,43.4421783 C19.8136028,41.7451965 20.8247901,40.1984435 22.3975573,39.5532142 C23.9703245,38.9079849 25.7787857,39.2979744 26.9445281,40.5337554 C29.7077588,43.4609404 33.9430078,44.4807419 37.7391279,43.1329765 C41.5352479,41.7852112 44.1743815,38.3247454 44.465625,34.3131072 L44.5808813,32.7366535 C44.6848076,31.3091331 45.5270873,30.0391082 46.8029335,29.3861495 C48.0787797,28.7331907 49.6034014,28.7918712 50.8251,29.5409568 L56.5551,33.0519386 L59.7201,27.9018167 L53.9901,24.3911999 C50.9677621,22.538993 47.1965235,22.3946875 44.0410278,24.010501 C40.8855321,25.6263146 38.8028089,28.7682192 38.5465031,32.2992992 L38.4311719,33.8757436 C38.3127873,35.4972472 37.2456747,36.8956715 35.7111639,37.4402457 C34.1766531,37.98482 32.4647742,37.5726169 31.3476844,36.3895641 C28.4623352,33.3329561 23.9879096,32.368706 20.0964349,33.9648911 C16.2049601,35.5610762 13.7021634,39.3872075 13.8029813,43.5859603 L13.8532125,45.7550149 C13.8945553,47.4252493 12.9154868,48.9531188 11.3791743,49.615835 C9.84286186,50.2785513 8.05732385,49.9432449 6.86724375,48.7685391 L4.71589688,46.6448381 L0.460490625,50.9416462 L2.611875,53.0653846 C4.48257378,54.9489498 7.0265888,56.0128804 9.68354063,56.0228205 C11.0934073,56.018549 12.4874124,55.7256289 13.779375,55.1621692 Z M69.4750219,54.9479142 C69.4750219,47.763682 63.6415933,41.9394726 56.4450593,41.9390523 C49.2485253,41.9386319 43.4141863,47.7621597 43.4135719,54.9463919 C43.4129575,62.1306242 49.2463004,67.9551464 56.4428344,67.9559527 C63.6365681,67.9487115 69.4667164,62.1293499 69.4750219,54.9479142 L69.4750219,54.9479142 Z M63.4228875,54.9479142 C63.423312,58.7953973 60.2993836,61.9147788 56.4453125,61.9153335 C52.5912413,61.9158882 49.466412,58.7974061 49.465725,54.9499231 C49.4650383,51.1024401 52.5887539,47.9828463 56.442825,47.9820296 C60.2950973,47.986411 63.417223,51.1022285 63.4228875,54.9479142 L63.4228875,54.9479142 Z" id="color_1" fill="#003B4F"></path>
        </g>
    </g>
</svg>